# xmcd
#
# Track frame offsets:
#	182
#	21165
#	38947
#	61312
#	78440
#	100392
#	120960
#	143600
#	162047
#	182112
#
# Disc length: 2695 seconds
#
# Revision: 2
# Processed by: cddbd v1.5.2PL0 Copyright (c) Steve Scherf et al.
# Submitted via: audiograbber 1.83.01
#
DISCID=780a850a
DTITLE=Barbara Lynn - CD-NH 1112 - Barbara Lynn - So Good
DYEAR=1968
DGENRE=Soul
TTITLE0=Guilty
TTITLE1=Can I Change My Mind
TTITLE2=Crazy 'Bout You
TTITLE3=Payback
TTITLE4=I Love You Babe
TTITLE5=You're The Man
TTITLE6=So Good
TTITLE7=This Is The Thanks I Get
TTITLE8=Sweet Sixteen
TTITLE9=I Want Your Love Again
EXTD=
EXTT0=
EXTT1=
EXTT2=
EXTT3=
EXTT4=
EXTT5=
EXTT6=
EXTT7=
EXTT8=
EXTT9=
PLAYORDER=
